# xmcd
#
# Track frame offsets:
#	150
#	18975
#	38475
#	56850
#	74925
#	96075
#	114750
#	134625
#	153900
#	171300
#	190275
#	207225
#	225675
#	245925
#	265950
#	286725
#
# Disc length: 4065 seconds
#
# Revision: 4
# Processed by: cddbd v1.5.2PL0 Copyright (c) Steve Scherf et al.
# Submitted via: audiograbber 1.83.01
#
DISCID=ee0fdf10
DTITLE=Various Artist - Party Tyme Karaoke Party Pack 2 Country Hits Disc 4
DYEAR=2006
DGENRE=Karaoke
TTITLE0=Toby Keith - As Good As I Once Was
TTITLE1=Sara Evans - A Real Fine Place To Start
TTITLE2=Rascal Flatts - Bless The Broken Road
TTITLE3=Gretchen Wilson - All Jacked Up
TTITLE4=Trace Adkins - Honky Tonk Badonkadonk
TTITLE5=Lee Ann Womack - I May Hate Myself In The Morning
TTITLE6=Keith Urban - Making Memories Of Us
TTITLE7=LeAnn Rimes - Something's Gotta Give
TTITLE8=Rascal Flatts - What Hurts The Most
TTITLE9=Faith Hill - Mississippi Girl
TTITLE10=Josh Turner - Your Man
TTITLE11=Miranda Lambert - New Strings
TTITLE12=Billy Currington - Must Be Doin' Somethin' Right
TTITLE13=Martina McBride - God's Will
TTITLE14=Montgomery Gentry - Something To Be Proud Of
TTITLE15=Jamie O'Neal - Somebody's Hero
EXTD=ID3G:  17 YEAR: 2006
EXTT0=
EXTT1=
EXTT2=
EXTT3=
EXTT4=
EXTT5=
EXTT6=
EXTT7=
EXTT8=
EXTT9=
EXTT10=
EXTT11=
EXTT12=
EXTT13=
EXTT14=
EXTT15=
PLAYORDER=
